<svg width="465" height="237" viewBox="0 0 465 237" fill="none" xmlns="http://www.w3.org/2000/svg">
<g filter="url(#filter0_d_217_43)">
<path d="M93.4456 128.25L115.559 166.551C116.184 167.634 116.184 168.968 115.559 170.051L93.4456 208.353C92.8204 209.435 91.6649 210.103 90.4145 210.103L46.188 210.103C44.9376 210.103 43.7821 209.435 43.1569 208.353L21.0437 170.051C20.4185 168.968 20.4185 167.634 21.0437 166.551L43.1569 128.25C43.7821 127.167 44.9376 126.5 46.188 126.5L90.4145 126.5C91.6649 126.5 92.8204 127.167 93.4456 128.25Z" fill="#FF715B" stroke="#FF715B" stroke-width="3"/>
<path d="M42.636 172.096C41.548 172.096 40.752 171.808 40.248 171.232C39.752 170.648 39.504 169.872 39.504 168.904C39.504 168.112 39.628 167.476 39.876 166.996C40.124 166.516 40.468 166.168 40.908 165.952C41.348 165.736 41.852 165.628 42.42 165.628C43.052 165.628 43.556 165.772 43.932 166.06C44.308 166.34 44.58 166.712 44.748 167.176C44.924 167.632 45.012 168.128 45.012 168.664C45.012 168.768 44.972 168.88 44.892 169C44.82 169.12 44.732 169.224 44.628 169.312C44.524 169.392 44.428 169.432 44.34 169.432H41.328C41.344 169.912 41.48 170.244 41.736 170.428C42 170.604 42.328 170.692 42.72 170.692C42.992 170.692 43.232 170.656 43.44 170.584C43.656 170.504 43.836 170.428 43.98 170.356C44.132 170.284 44.248 170.248 44.328 170.248C44.408 170.248 44.488 170.308 44.568 170.428C44.648 170.548 44.716 170.684 44.772 170.836C44.828 170.98 44.856 171.092 44.856 171.172C44.856 171.292 44.776 171.408 44.616 171.52C44.464 171.632 44.268 171.732 44.028 171.82C43.788 171.908 43.544 171.976 43.296 172.024C43.048 172.072 42.828 172.096 42.636 172.096ZM41.304 168.244H43.32C43.32 167.844 43.24 167.544 43.08 167.344C42.92 167.136 42.676 167.032 42.348 167.032C42.204 167.032 42.052 167.06 41.892 167.116C41.732 167.172 41.596 167.288 41.484 167.464C41.372 167.632 41.312 167.892 41.304 168.244ZM46.8968 172.024C46.6408 172.024 46.4528 171.992 46.3328 171.928C46.2208 171.856 46.1648 171.756 46.1648 171.628V167.812C46.1648 167.46 46.1528 167.18 46.1288 166.972C46.1128 166.756 46.0928 166.588 46.0688 166.468C46.0528 166.348 46.0448 166.244 46.0448 166.156C46.0448 166.068 46.1008 165.996 46.2128 165.94C46.3328 165.884 46.4728 165.844 46.6328 165.82C46.8008 165.788 46.9568 165.768 47.1008 165.76C47.2528 165.744 47.3608 165.736 47.4248 165.736C47.5208 165.736 47.5928 165.76 47.6408 165.808C47.6888 165.848 47.7288 165.924 47.7608 166.036C47.8008 166.148 47.8408 166.316 47.8808 166.54C47.9928 166.388 48.1368 166.244 48.3128 166.108C48.4968 165.964 48.7008 165.848 48.9248 165.76C49.1568 165.672 49.4008 165.628 49.6568 165.628C49.9528 165.628 50.2128 165.668 50.4368 165.748C50.6688 165.82 50.8568 165.932 51.0008 166.084C51.1528 166.228 51.2608 166.412 51.3248 166.636C51.4288 166.468 51.5688 166.308 51.7448 166.156C51.9288 166.004 52.1408 165.88 52.3808 165.784C52.6208 165.68 52.8768 165.628 53.1488 165.628C53.5648 165.628 53.9048 165.7 54.1688 165.844C54.4408 165.98 54.6408 166.192 54.7688 166.48C54.9048 166.76 54.9728 167.124 54.9728 167.572V171.628C54.9728 171.756 54.9128 171.856 54.7928 171.928C54.6808 171.992 54.4968 172.024 54.2408 172.024H53.9048C53.6488 172.024 53.4608 171.992 53.3408 171.928C53.2288 171.856 53.1728 171.756 53.1728 171.628V167.836C53.1728 167.604 53.1168 167.424 53.0048 167.296C52.9008 167.16 52.7168 167.092 52.4528 167.092C52.3568 167.092 52.2568 167.112 52.1528 167.152C52.0568 167.184 51.9608 167.236 51.8648 167.308C51.7688 167.38 51.6728 167.472 51.5768 167.584C51.4888 167.688 51.4088 167.812 51.3368 167.956L51.3488 166.984C51.3888 167.088 51.4168 167.188 51.4328 167.284C51.4568 167.38 51.4688 167.48 51.4688 167.584V171.628C51.4688 171.756 51.4088 171.856 51.2888 171.928C51.1768 171.992 50.9928 172.024 50.7368 172.024H50.4008C50.1448 172.024 49.9568 171.992 49.8368 171.928C49.7248 171.856 49.6688 171.756 49.6688 171.628V167.836C49.6688 167.604 49.6128 167.424 49.5008 167.296C49.3968 167.16 49.2128 167.092 48.9488 167.092C48.8208 167.092 48.6928 167.124 48.5648 167.188C48.4368 167.244 48.3208 167.324 48.2168 167.428C48.1128 167.532 48.0288 167.652 47.9648 167.788V171.628C47.9648 171.756 47.9048 171.856 47.7848 171.928C47.6728 171.992 47.4888 172.024 47.2327 172.024H46.8968ZM57.0686 174.472C56.8126 174.472 56.6246 174.436 56.5046 174.364C56.3926 174.3 56.3366 174.204 56.3366 174.076V167.812C56.3366 167.46 56.3246 167.18 56.3006 166.972C56.2846 166.756 56.2646 166.588 56.2406 166.468C56.2246 166.348 56.2166 166.244 56.2166 166.156C56.2166 166.068 56.2726 165.996 56.3846 165.94C56.5046 165.884 56.6446 165.844 56.8046 165.82C56.9726 165.788 57.1286 165.768 57.2726 165.76C57.4246 165.744 57.5326 165.736 57.5966 165.736C57.6926 165.736 57.7646 165.76 57.8126 165.808C57.8606 165.848 57.9006 165.924 57.9326 166.036C57.9726 166.148 58.0126 166.316 58.0526 166.54C58.1486 166.364 58.2766 166.208 58.4366 166.072C58.6046 165.936 58.7966 165.828 59.0126 165.748C59.2286 165.668 59.4606 165.628 59.7086 165.628C60.1566 165.628 60.5526 165.752 60.8966 166C61.2406 166.248 61.5126 166.616 61.7126 167.104C61.9126 167.584 62.0126 168.172 62.0126 168.868C62.0126 169.516 61.9126 170.084 61.7126 170.572C61.5126 171.052 61.2166 171.428 60.8246 171.7C60.4406 171.964 59.9726 172.096 59.4206 172.096C59.2206 172.096 59.0406 172.076 58.8806 172.036C58.7206 172.004 58.5766 171.96 58.4486 171.904C58.3286 171.84 58.2246 171.78 58.1366 171.724V174.076C58.1366 174.204 58.0766 174.3 57.9566 174.364C57.8446 174.436 57.6606 174.472 57.4046 174.472H57.0686ZM59.0366 170.692C59.4286 170.692 59.7166 170.54 59.9006 170.236C60.0926 169.924 60.1886 169.468 60.1886 168.868C60.1886 168.284 60.1046 167.84 59.9366 167.536C59.7766 167.232 59.5246 167.08 59.1806 167.08C58.9406 167.08 58.7326 167.152 58.5566 167.296C58.3886 167.44 58.2486 167.604 58.1366 167.788V170.464C58.2406 170.52 58.3646 170.572 58.5086 170.62C58.6606 170.668 58.8366 170.692 59.0366 170.692ZM64.7995 172.096C64.1515 172.096 63.6915 171.928 63.4195 171.592C63.1555 171.248 63.0235 170.832 63.0235 170.344C63.0235 170.096 63.0595 169.844 63.1315 169.588C63.2115 169.324 63.3675 169.08 63.5995 168.856C63.8315 168.632 64.1755 168.452 64.6315 168.316C65.0955 168.18 65.7075 168.112 66.4675 168.112V167.752C66.4675 167.584 66.4355 167.448 66.3715 167.344C66.3075 167.24 66.2075 167.164 66.0715 167.116C65.9355 167.06 65.7555 167.032 65.5315 167.032C65.2435 167.032 64.9835 167.064 64.7515 167.128C64.5275 167.184 64.3355 167.244 64.1755 167.308C64.0235 167.372 63.9075 167.404 63.8275 167.404C63.7715 167.404 63.7155 167.368 63.6595 167.296C63.6035 167.216 63.5515 167.124 63.5035 167.02C63.4635 166.908 63.4315 166.8 63.4075 166.696C63.3835 166.592 63.3715 166.512 63.3715 166.456C63.3715 166.344 63.4395 166.24 63.5755 166.144C63.7115 166.048 63.8915 165.96 64.1155 165.88C64.3395 165.8 64.5875 165.74 64.8595 165.7C65.1315 165.652 65.3995 165.628 65.6635 165.628C66.1355 165.628 66.5355 165.68 66.8635 165.784C67.1915 165.88 67.4555 166.02 67.6555 166.204C67.8635 166.38 68.0115 166.592 68.0995 166.84C68.1955 167.08 68.2435 167.344 68.2435 167.632V169.888C68.2435 170.304 68.2555 170.624 68.2795 170.848C68.3035 171.064 68.3275 171.228 68.3515 171.34C68.3755 171.444 68.3875 171.54 68.3875 171.628C68.3875 171.7 68.3315 171.76 68.2195 171.808C68.1155 171.856 67.9835 171.896 67.8235 171.928C67.6715 171.96 67.5195 171.984 67.3675 172C67.2235 172.008 67.1155 172.012 67.0435 172.012C66.9155 172.012 66.8195 171.968 66.7555 171.88C66.6995 171.784 66.6595 171.672 66.6355 171.544C66.6115 171.408 66.5875 171.288 66.5635 171.184C66.5395 171.232 66.4555 171.332 66.3115 171.484C66.1755 171.628 65.9795 171.768 65.7235 171.904C65.4755 172.032 65.1675 172.096 64.7995 172.096ZM65.3875 170.692C65.5395 170.692 65.6835 170.66 65.8195 170.596C65.9635 170.532 66.0915 170.444 66.2035 170.332C66.3155 170.212 66.4035 170.08 66.4675 169.936V169.276C66.1795 169.276 65.9315 169.296 65.7235 169.336C65.5155 169.376 65.3395 169.432 65.1955 169.504C65.0595 169.576 64.9555 169.668 64.8835 169.78C64.8195 169.892 64.7875 170.02 64.7875 170.164C64.7875 170.316 64.8355 170.444 64.9315 170.548C65.0355 170.644 65.1875 170.692 65.3875 170.692ZM71.7466 172.096C71.3626 172.096 71.0386 172.028 70.7746 171.892C70.5186 171.756 70.3266 171.556 70.1986 171.292C70.0706 171.02 70.0066 170.688 70.0066 170.296V167.128H69.6226C69.3826 167.128 69.2626 166.928 69.2626 166.528V166.324C69.2626 165.924 69.3826 165.724 69.6226 165.724H70.0066L70.1986 164.584C70.2226 164.456 70.2826 164.36 70.3786 164.296C70.4826 164.232 70.6266 164.2 70.8106 164.2H71.2066C71.4146 164.2 71.5666 164.232 71.6626 164.296C71.7586 164.36 71.8066 164.456 71.8066 164.584V165.724H72.5386C72.7786 165.724 72.8986 165.924 72.8986 166.324V166.528C72.8986 166.928 72.7786 167.128 72.5386 167.128H71.8066V170.176C71.8066 170.352 71.8346 170.48 71.8906 170.56C71.9546 170.632 72.0626 170.668 72.2146 170.668C72.3506 170.668 72.4546 170.652 72.5266 170.62C72.6066 170.58 72.6746 170.56 72.7306 170.56C72.7786 170.56 72.8226 170.6 72.8626 170.68C72.9026 170.76 72.9346 170.86 72.9586 170.98C72.9906 171.092 73.0146 171.204 73.0306 171.316C73.0466 171.42 73.0546 171.5 73.0546 171.556C73.0546 171.652 72.9866 171.744 72.8506 171.832C72.7146 171.912 72.5466 171.976 72.3466 172.024C72.1466 172.072 71.9466 172.096 71.7466 172.096ZM74.5882 172.024C74.3322 172.024 74.1442 171.992 74.0242 171.928C73.9122 171.856 73.8562 171.756 73.8562 171.628V163.348C73.8562 163.22 73.9122 163.124 74.0242 163.06C74.1442 162.988 74.3322 162.952 74.5882 162.952H74.9002C75.1562 162.952 75.3402 162.988 75.4522 163.06C75.5722 163.124 75.6322 163.22 75.6322 163.348V166.48C75.7442 166.336 75.8842 166.2 76.0522 166.072C76.2282 165.944 76.4242 165.84 76.6402 165.76C76.8642 165.672 77.1042 165.628 77.3602 165.628C77.7682 165.628 78.1042 165.7 78.3682 165.844C78.6402 165.98 78.8402 166.192 78.9682 166.48C79.0962 166.76 79.1602 167.124 79.1602 167.572V171.628C79.1602 171.756 79.1002 171.856 78.9802 171.928C78.8682 171.992 78.6842 172.024 78.4282 172.024H78.0922C77.8362 172.024 77.6482 171.992 77.5282 171.928C77.4162 171.856 77.3602 171.756 77.3602 171.628V167.836C77.3602 167.604 77.3082 167.424 77.2042 167.296C77.1002 167.16 76.9202 167.092 76.6642 167.092C76.5362 167.092 76.4042 167.124 76.2682 167.188C76.1402 167.244 76.0202 167.324 75.9082 167.428C75.8042 167.532 75.7202 167.652 75.6562 167.788V171.628C75.6562 171.756 75.5962 171.856 75.4762 171.928C75.3642 171.992 75.1802 172.024 74.9242 172.024H74.5882ZM81.3733 172.024C81.1173 172.024 80.9293 171.992 80.8093 171.928C80.6973 171.856 80.6413 171.756 80.6413 171.628V166.096C80.6413 165.968 80.6973 165.872 80.8093 165.808C80.9293 165.736 81.1173 165.7 81.3733 165.7H81.7093C81.9653 165.7 82.1493 165.736 82.2613 165.808C82.3813 165.872 82.4413 165.968 82.4413 166.096V171.628C82.4413 171.756 82.3813 171.856 82.2613 171.928C82.1493 171.992 81.9653 172.024 81.7093 172.024H81.3733ZM81.5413 165.112C81.2293 165.112 81.0013 165.08 80.8573 165.016C80.7213 164.952 80.6533 164.856 80.6533 164.728V163.792C80.6533 163.664 80.7213 163.568 80.8573 163.504C81.0013 163.44 81.2293 163.408 81.5413 163.408C81.8533 163.408 82.0773 163.44 82.2133 163.504C82.3573 163.568 82.4293 163.664 82.4293 163.792V164.728C82.4293 164.856 82.3573 164.952 82.2133 165.016C82.0773 165.08 81.8533 165.112 81.5413 165.112ZM83.8891 172C83.7851 172 83.6971 171.952 83.6251 171.856C83.5611 171.752 83.5131 171.632 83.4811 171.496C83.4491 171.352 83.4331 171.224 83.4331 171.112C83.4331 171.072 83.4331 171.028 83.4331 170.98C83.4411 170.932 83.4731 170.872 83.5291 170.8L86.8171 166.42L87.2731 167.128H83.9371C83.6971 167.128 83.5771 166.928 83.5771 166.528V166.324C83.5771 165.924 83.6971 165.724 83.9371 165.724H88.1851C88.2971 165.724 88.3851 165.776 88.4491 165.88C88.5131 165.976 88.5611 166.096 88.5931 166.24C88.6251 166.376 88.6411 166.5 88.6411 166.612C88.6411 166.652 88.6371 166.696 88.6291 166.744C88.6291 166.792 88.6011 166.852 88.5451 166.924L85.2571 171.304L84.7891 170.596H88.3291C88.5691 170.596 88.6891 170.796 88.6891 171.196V171.4C88.6891 171.8 88.5691 172 88.3291 172H83.8891ZM92.3938 172.096C91.3058 172.096 90.5098 171.808 90.0058 171.232C89.5098 170.648 89.2618 169.872 89.2618 168.904C89.2618 168.112 89.3858 167.476 89.6338 166.996C89.8818 166.516 90.2258 166.168 90.6658 165.952C91.1058 165.736 91.6098 165.628 92.1778 165.628C92.8098 165.628 93.3138 165.772 93.6898 166.06C94.0658 166.34 94.3378 166.712 94.5058 167.176C94.6818 167.632 94.7698 168.128 94.7698 168.664C94.7698 168.768 94.7298 168.88 94.6498 169C94.5778 169.12 94.4898 169.224 94.3858 169.312C94.2818 169.392 94.1858 169.432 94.0978 169.432H91.0858C91.1018 169.912 91.2378 170.244 91.4938 170.428C91.7578 170.604 92.0858 170.692 92.4778 170.692C92.7498 170.692 92.9898 170.656 93.1978 170.584C93.4138 170.504 93.5938 170.428 93.7378 170.356C93.8898 170.284 94.0058 170.248 94.0858 170.248C94.1658 170.248 94.2458 170.308 94.3258 170.428C94.4058 170.548 94.4738 170.684 94.5298 170.836C94.5858 170.98 94.6138 171.092 94.6138 171.172C94.6138 171.292 94.5338 171.408 94.3738 171.52C94.2218 171.632 94.0258 171.732 93.7858 171.82C93.5458 171.908 93.3018 171.976 93.0538 172.024C92.8058 172.072 92.5858 172.096 92.3938 172.096ZM91.0618 168.244H93.0778C93.0778 167.844 92.9978 167.544 92.8378 167.344C92.6778 167.136 92.4338 167.032 92.1058 167.032C91.9618 167.032 91.8098 167.06 91.6498 167.116C91.4898 167.172 91.3538 167.288 91.2418 167.464C91.1298 167.632 91.0698 167.892 91.0618 168.244Z" fill="#F8F4A6"/>
<path d="M421.446 28.25L443.559 66.5513C444.184 67.6342 444.184 68.9684 443.559 70.0513L421.446 108.353C420.82 109.435 419.665 110.103 418.415 110.103L374.188 110.103C372.938 110.103 371.782 109.435 371.157 108.353L349.044 70.0513C348.418 68.9684 348.418 67.6342 349.044 66.5513L371.157 28.25C371.782 27.1671 372.938 26.5 374.188 26.5L418.415 26.5C419.665 26.5 420.82 27.1671 421.446 28.25Z" fill="#FF715B" stroke="#FF715B" stroke-width="3"/>
<path d="M339.446 78.25L361.559 116.551C362.184 117.634 362.184 118.968 361.559 120.051L339.446 158.353C338.82 159.435 337.665 160.103 336.415 160.103L292.188 160.103C290.938 160.103 289.782 159.435 289.157 158.353L267.044 120.051C266.418 118.968 266.418 117.634 267.044 116.551L289.157 78.25C289.782 77.1671 290.938 76.5 292.188 76.5L336.415 76.5C337.665 76.5 338.82 77.1671 339.446 78.25Z" fill="#FF715B" stroke="#FF715B" stroke-width="3"/>
<path d="M258.446 128.25L280.559 166.551C281.184 167.634 281.184 168.968 280.559 170.051L258.446 208.353C257.82 209.435 256.665 210.103 255.415 210.103L211.188 210.103C209.938 210.103 208.782 209.435 208.157 208.353L186.044 170.051C185.418 168.968 185.418 167.634 186.044 166.551L208.157 128.25C208.782 127.167 209.938 126.5 211.188 126.5L255.415 126.5C256.665 126.5 257.82 127.167 258.446 128.25Z" fill="#FF715B" stroke="#FF715B" stroke-width="3"/>
<path d="M176.446 78.25L198.559 116.551C199.184 117.634 199.184 118.968 198.559 120.051L176.446 158.353C175.82 159.435 174.665 160.103 173.415 160.103L129.188 160.103C127.938 160.103 126.782 159.435 126.157 158.353L104.044 120.051C103.418 118.968 103.418 117.634 104.044 116.551L126.157 78.25C126.782 77.1671 127.938 76.5 129.188 76.5L173.415 76.5C174.665 76.5 175.82 77.1671 176.446 78.25Z" fill="#FF715B" stroke="#FF715B" stroke-width="3"/>
<path d="M136.76 122.096C136.328 122.096 135.94 121.972 135.596 121.724C135.26 121.476 134.992 121.112 134.792 120.632C134.6 120.144 134.504 119.552 134.504 118.856C134.504 118.2 134.604 117.632 134.804 117.152C135.004 116.672 135.292 116.3 135.668 116.036C136.052 115.764 136.512 115.628 137.048 115.628C137.352 115.628 137.604 115.668 137.804 115.748C138.004 115.828 138.164 115.912 138.284 116V113.348C138.284 113.22 138.34 113.124 138.452 113.06C138.572 112.988 138.76 112.952 139.016 112.952H139.352C139.608 112.952 139.792 112.988 139.904 113.06C140.024 113.124 140.084 113.22 140.084 113.348V119.912C140.084 120.264 140.092 120.544 140.108 120.752C140.132 120.96 140.152 121.128 140.168 121.256C140.192 121.376 140.204 121.48 140.204 121.568C140.204 121.664 140.144 121.744 140.024 121.808C139.912 121.864 139.772 121.908 139.604 121.94C139.444 121.964 139.288 121.984 139.136 122C138.992 122.008 138.888 122.012 138.824 122.012C138.728 122.012 138.656 121.992 138.608 121.952C138.56 121.904 138.52 121.82 138.488 121.7C138.456 121.58 138.416 121.408 138.368 121.184C138.28 121.36 138.156 121.516 137.996 121.652C137.844 121.788 137.664 121.896 137.456 121.976C137.248 122.056 137.016 122.096 136.76 122.096ZM137.288 120.644C137.52 120.644 137.716 120.572 137.876 120.428C138.044 120.284 138.18 120.12 138.284 119.936V117.26C138.196 117.204 138.08 117.152 137.936 117.104C137.792 117.056 137.624 117.032 137.432 117.032C137.064 117.032 136.788 117.188 136.604 117.5C136.42 117.804 136.328 118.256 136.328 118.856C136.328 119.44 136.408 119.884 136.568 120.188C136.728 120.492 136.968 120.644 137.288 120.644ZM144.421 122.096C143.333 122.096 142.537 121.808 142.033 121.232C141.537 120.648 141.289 119.872 141.289 118.904C141.289 118.112 141.413 117.476 141.661 116.996C141.909 116.516 142.253 116.168 142.693 115.952C143.133 115.736 143.637 115.628 144.205 115.628C144.837 115.628 145.341 115.772 145.717 116.06C146.093 116.34 146.365 116.712 146.533 117.176C146.709 117.632 146.797 118.128 146.797 118.664C146.797 118.768 146.757 118.88 146.677 119C146.605 119.12 146.517 119.224 146.413 119.312C146.309 119.392 146.213 119.432 146.125 119.432H143.113C143.129 119.912 143.265 120.244 143.521 120.428C143.785 120.604 144.113 120.692 144.505 120.692C144.777 120.692 145.017 120.656 145.225 120.584C145.441 120.504 145.621 120.428 145.765 120.356C145.917 120.284 146.033 120.248 146.113 120.248C146.193 120.248 146.273 120.308 146.353 120.428C146.433 120.548 146.501 120.684 146.557 120.836C146.613 120.98 146.641 121.092 146.641 121.172C146.641 121.292 146.561 121.408 146.401 121.52C146.249 121.632 146.053 121.732 145.813 121.82C145.573 121.908 145.329 121.976 145.081 122.024C144.833 122.072 144.613 122.096 144.421 122.096ZM143.089 118.244H145.105C145.105 117.844 145.025 117.544 144.865 117.344C144.705 117.136 144.461 117.032 144.133 117.032C143.989 117.032 143.837 117.06 143.677 117.116C143.517 117.172 143.381 117.288 143.269 117.464C143.157 117.632 143.097 117.892 143.089 118.244ZM152.582 122.024C152.326 122.024 152.138 121.992 152.018 121.928C151.906 121.856 151.85 121.756 151.85 121.628V117.128H150.002V115.724H152.918C153.174 115.724 153.358 115.76 153.47 115.832C153.59 115.896 153.65 115.992 153.65 116.12V121.628C153.65 121.756 153.59 121.856 153.47 121.928C153.358 121.992 153.174 122.024 152.918 122.024H152.582ZM148.934 122.024C148.678 122.024 148.49 121.992 148.37 121.928C148.258 121.856 148.202 121.756 148.202 121.628V117.128H147.818C147.578 117.128 147.458 116.928 147.458 116.528V116.324C147.458 115.924 147.578 115.724 147.818 115.724H148.202V114.68C148.202 114.28 148.266 113.948 148.394 113.684C148.522 113.42 148.714 113.22 148.97 113.084C149.234 112.948 149.558 112.88 149.942 112.88C150.142 112.88 150.342 112.9 150.542 112.94C150.742 112.98 150.91 113.032 151.046 113.096C151.182 113.152 151.25 113.22 151.25 113.3C151.25 113.364 151.242 113.456 151.226 113.576C151.21 113.696 151.186 113.82 151.154 113.948C151.13 114.076 151.098 114.188 151.058 114.284C151.018 114.372 150.974 114.416 150.926 114.416C150.87 114.416 150.802 114.4 150.722 114.368C150.65 114.328 150.546 114.308 150.41 114.308C150.258 114.308 150.15 114.344 150.086 114.416C150.03 114.488 150.002 114.616 150.002 114.8V115.724H150.734C150.974 115.724 151.094 115.924 151.094 116.324V116.528C151.094 116.928 150.974 117.128 150.734 117.128H150.002V121.628C150.002 121.756 149.942 121.856 149.822 121.928C149.71 121.992 149.526 122.024 149.27 122.024H148.934ZM152.75 115.112C152.438 115.112 152.21 115.08 152.066 115.016C151.93 114.952 151.862 114.856 151.862 114.728V113.792C151.862 113.664 151.93 113.568 152.066 113.504C152.21 113.44 152.438 113.408 152.75 113.408C153.062 113.408 153.286 113.44 153.422 113.504C153.566 113.568 153.638 113.664 153.638 113.792V114.728C153.638 114.856 153.566 114.952 153.422 115.016C153.286 115.08 153.062 115.112 152.75 115.112ZM155.76 122.024C155.504 122.024 155.316 121.992 155.196 121.928C155.084 121.856 155.028 121.756 155.028 121.628V117.812C155.028 117.46 155.016 117.18 154.992 116.972C154.976 116.756 154.956 116.588 154.932 116.468C154.916 116.348 154.908 116.244 154.908 116.156C154.908 116.068 154.964 115.996 155.076 115.94C155.196 115.884 155.336 115.844 155.496 115.82C155.664 115.788 155.82 115.768 155.964 115.76C156.116 115.744 156.224 115.736 156.288 115.736C156.384 115.736 156.456 115.76 156.504 115.808C156.552 115.848 156.592 115.924 156.624 116.036C156.664 116.148 156.704 116.316 156.744 116.54C156.864 116.388 157.012 116.244 157.188 116.108C157.372 115.964 157.576 115.848 157.8 115.76C158.032 115.672 158.276 115.628 158.532 115.628C158.94 115.628 159.276 115.7 159.54 115.844C159.812 115.98 160.012 116.192 160.14 116.48C160.268 116.76 160.332 117.124 160.332 117.572V121.628C160.332 121.756 160.272 121.856 160.152 121.928C160.04 121.992 159.856 122.024 159.6 122.024H159.264C159.008 122.024 158.82 121.992 158.7 121.928C158.588 121.856 158.532 121.756 158.532 121.628V117.836C158.532 117.604 158.48 117.424 158.376 117.296C158.272 117.16 158.092 117.092 157.836 117.092C157.708 117.092 157.576 117.124 157.44 117.188C157.312 117.244 157.192 117.324 157.08 117.428C156.976 117.532 156.892 117.652 156.828 117.788V121.628C156.828 121.756 156.768 121.856 156.648 121.928C156.536 121.992 156.352 122.024 156.096 122.024H155.76ZM164.648 122.096C163.56 122.096 162.764 121.808 162.26 121.232C161.764 120.648 161.516 119.872 161.516 118.904C161.516 118.112 161.64 117.476 161.888 116.996C162.136 116.516 162.48 116.168 162.92 115.952C163.36 115.736 163.864 115.628 164.432 115.628C165.064 115.628 165.568 115.772 165.944 116.06C166.32 116.34 166.592 116.712 166.76 117.176C166.936 117.632 167.024 118.128 167.024 118.664C167.024 118.768 166.984 118.88 166.904 119C166.832 119.12 166.744 119.224 166.64 119.312C166.536 119.392 166.44 119.432 166.352 119.432H163.34C163.356 119.912 163.492 120.244 163.748 120.428C164.012 120.604 164.34 120.692 164.732 120.692C165.004 120.692 165.244 120.656 165.452 120.584C165.668 120.504 165.848 120.428 165.992 120.356C166.144 120.284 166.26 120.248 166.34 120.248C166.42 120.248 166.5 120.308 166.58 120.428C166.66 120.548 166.728 120.684 166.784 120.836C166.84 120.98 166.868 121.092 166.868 121.172C166.868 121.292 166.788 121.408 166.628 121.52C166.476 121.632 166.28 121.732 166.04 121.82C165.8 121.908 165.556 121.976 165.308 122.024C165.06 122.072 164.84 122.096 164.648 122.096ZM163.316 118.244H165.332C165.332 117.844 165.252 117.544 165.092 117.344C164.932 117.136 164.688 117.032 164.36 117.032C164.216 117.032 164.064 117.06 163.904 117.116C163.744 117.172 163.608 117.288 163.496 117.464C163.384 117.632 163.324 117.892 163.316 118.244Z" fill="#F8F4A6"/>
<path d="M217.428 172.024C217.172 172.024 216.984 171.992 216.864 171.928C216.752 171.856 216.696 171.756 216.696 171.628V166.096C216.696 165.968 216.752 165.872 216.864 165.808C216.984 165.736 217.172 165.7 217.428 165.7H217.764C218.02 165.7 218.204 165.736 218.316 165.808C218.436 165.872 218.496 165.968 218.496 166.096V171.628C218.496 171.756 218.436 171.856 218.316 171.928C218.204 171.992 218.02 172.024 217.764 172.024H217.428ZM217.596 165.112C217.284 165.112 217.056 165.08 216.912 165.016C216.776 164.952 216.708 164.856 216.708 164.728V163.792C216.708 163.664 216.776 163.568 216.912 163.504C217.056 163.44 217.284 163.408 217.596 163.408C217.908 163.408 218.132 163.44 218.268 163.504C218.412 163.568 218.484 163.664 218.484 163.792V164.728C218.484 164.856 218.412 164.952 218.268 165.016C218.132 165.08 217.908 165.112 217.596 165.112ZM221.936 172.096C221.504 172.096 221.116 171.972 220.772 171.724C220.436 171.476 220.168 171.112 219.968 170.632C219.776 170.144 219.68 169.552 219.68 168.856C219.68 168.2 219.78 167.632 219.98 167.152C220.18 166.672 220.468 166.3 220.844 166.036C221.228 165.764 221.688 165.628 222.224 165.628C222.528 165.628 222.78 165.668 222.98 165.748C223.18 165.828 223.34 165.912 223.46 166V163.348C223.46 163.22 223.516 163.124 223.628 163.06C223.748 162.988 223.936 162.952 224.192 162.952H224.528C224.784 162.952 224.968 162.988 225.08 163.06C225.2 163.124 225.26 163.22 225.26 163.348V169.912C225.26 170.264 225.268 170.544 225.284 170.752C225.308 170.96 225.328 171.128 225.344 171.256C225.368 171.376 225.38 171.48 225.38 171.568C225.38 171.664 225.32 171.744 225.2 171.808C225.088 171.864 224.948 171.908 224.78 171.94C224.62 171.964 224.464 171.984 224.312 172C224.168 172.008 224.064 172.012 224 172.012C223.904 172.012 223.832 171.992 223.784 171.952C223.736 171.904 223.696 171.82 223.664 171.7C223.632 171.58 223.592 171.408 223.544 171.184C223.456 171.36 223.332 171.516 223.172 171.652C223.02 171.788 222.84 171.896 222.632 171.976C222.424 172.056 222.192 172.096 221.936 172.096ZM222.464 170.644C222.696 170.644 222.892 170.572 223.052 170.428C223.22 170.284 223.356 170.12 223.46 169.936V167.26C223.372 167.204 223.256 167.152 223.112 167.104C222.968 167.056 222.8 167.032 222.608 167.032C222.24 167.032 221.964 167.188 221.78 167.5C221.596 167.804 221.504 168.256 221.504 168.856C221.504 169.44 221.584 169.884 221.744 170.188C221.904 170.492 222.144 170.644 222.464 170.644ZM229.597 172.096C228.509 172.096 227.713 171.808 227.209 171.232C226.713 170.648 226.465 169.872 226.465 168.904C226.465 168.112 226.589 167.476 226.837 166.996C227.085 166.516 227.429 166.168 227.869 165.952C228.309 165.736 228.813 165.628 229.381 165.628C230.013 165.628 230.517 165.772 230.893 166.06C231.269 166.34 231.541 166.712 231.709 167.176C231.885 167.632 231.973 168.128 231.973 168.664C231.973 168.768 231.933 168.88 231.853 169C231.781 169.12 231.693 169.224 231.589 169.312C231.485 169.392 231.389 169.432 231.301 169.432H228.289C228.305 169.912 228.441 170.244 228.697 170.428C228.961 170.604 229.289 170.692 229.681 170.692C229.953 170.692 230.193 170.656 230.401 170.584C230.617 170.504 230.797 170.428 230.941 170.356C231.093 170.284 231.209 170.248 231.289 170.248C231.369 170.248 231.449 170.308 231.529 170.428C231.609 170.548 231.677 170.684 231.733 170.836C231.789 170.98 231.817 171.092 231.817 171.172C231.817 171.292 231.737 171.408 231.577 171.52C231.425 171.632 231.229 171.732 230.989 171.82C230.749 171.908 230.505 171.976 230.257 172.024C230.009 172.072 229.789 172.096 229.597 172.096ZM228.265 168.244H230.281C230.281 167.844 230.201 167.544 230.041 167.344C229.881 167.136 229.637 167.032 229.309 167.032C229.165 167.032 229.013 167.06 228.853 167.116C228.693 167.172 228.557 167.288 228.445 167.464C228.333 167.632 228.273 167.892 228.265 168.244ZM234.71 172.096C234.062 172.096 233.602 171.928 233.33 171.592C233.066 171.248 232.934 170.832 232.934 170.344C232.934 170.096 232.97 169.844 233.042 169.588C233.122 169.324 233.278 169.08 233.51 168.856C233.742 168.632 234.086 168.452 234.542 168.316C235.006 168.18 235.618 168.112 236.378 168.112V167.752C236.378 167.584 236.346 167.448 236.282 167.344C236.218 167.24 236.118 167.164 235.982 167.116C235.846 167.06 235.666 167.032 235.442 167.032C235.154 167.032 234.894 167.064 234.662 167.128C234.438 167.184 234.246 167.244 234.086 167.308C233.934 167.372 233.818 167.404 233.738 167.404C233.682 167.404 233.626 167.368 233.57 167.296C233.514 167.216 233.462 167.124 233.414 167.02C233.374 166.908 233.342 166.8 233.318 166.696C233.294 166.592 233.282 166.512 233.282 166.456C233.282 166.344 233.35 166.24 233.486 166.144C233.622 166.048 233.802 165.96 234.026 165.88C234.25 165.8 234.498 165.74 234.77 165.7C235.042 165.652 235.31 165.628 235.574 165.628C236.046 165.628 236.446 165.68 236.774 165.784C237.102 165.88 237.366 166.02 237.566 166.204C237.774 166.38 237.922 166.592 238.01 166.84C238.106 167.08 238.154 167.344 238.154 167.632V169.888C238.154 170.304 238.166 170.624 238.19 170.848C238.214 171.064 238.238 171.228 238.262 171.34C238.286 171.444 238.298 171.54 238.298 171.628C238.298 171.7 238.242 171.76 238.13 171.808C238.026 171.856 237.894 171.896 237.734 171.928C237.582 171.96 237.43 171.984 237.278 172C237.134 172.008 237.026 172.012 236.954 172.012C236.826 172.012 236.73 171.968 236.666 171.88C236.61 171.784 236.57 171.672 236.546 171.544C236.522 171.408 236.498 171.288 236.474 171.184C236.45 171.232 236.366 171.332 236.222 171.484C236.086 171.628 235.89 171.768 235.634 171.904C235.386 172.032 235.078 172.096 234.71 172.096ZM235.298 170.692C235.45 170.692 235.594 170.66 235.73 170.596C235.874 170.532 236.002 170.444 236.114 170.332C236.226 170.212 236.314 170.08 236.378 169.936V169.276C236.09 169.276 235.842 169.296 235.634 169.336C235.426 169.376 235.25 169.432 235.106 169.504C234.97 169.576 234.866 169.668 234.794 169.78C234.73 169.892 234.698 170.02 234.698 170.164C234.698 170.316 234.746 170.444 234.842 170.548C234.946 170.644 235.098 170.692 235.298 170.692ZM241.657 172.096C241.273 172.096 240.949 172.028 240.685 171.892C240.429 171.756 240.237 171.556 240.109 171.292C239.981 171.02 239.917 170.688 239.917 170.296V167.128H239.533C239.293 167.128 239.173 166.928 239.173 166.528V166.324C239.173 165.924 239.293 165.724 239.533 165.724H239.917L240.109 164.584C240.133 164.456 240.193 164.36 240.289 164.296C240.393 164.232 240.537 164.2 240.721 164.2H241.117C241.325 164.2 241.477 164.232 241.573 164.296C241.669 164.36 241.717 164.456 241.717 164.584V165.724H242.449C242.689 165.724 242.809 165.924 242.809 166.324V166.528C242.809 166.928 242.689 167.128 242.449 167.128H241.717V170.176C241.717 170.352 241.745 170.48 241.801 170.56C241.865 170.632 241.973 170.668 242.125 170.668C242.261 170.668 242.365 170.652 242.437 170.62C242.517 170.58 242.585 170.56 242.641 170.56C242.689 170.56 242.733 170.6 242.773 170.68C242.813 170.76 242.845 170.86 242.869 170.98C242.901 171.092 242.925 171.204 242.941 171.316C242.957 171.42 242.965 171.5 242.965 171.556C242.965 171.652 242.897 171.744 242.761 171.832C242.625 171.912 242.457 171.976 242.257 172.024C242.057 172.072 241.857 172.096 241.657 172.096ZM246.589 172.096C245.501 172.096 244.705 171.808 244.201 171.232C243.705 170.648 243.457 169.872 243.457 168.904C243.457 168.112 243.581 167.476 243.829 166.996C244.077 166.516 244.421 166.168 244.861 165.952C245.301 165.736 245.805 165.628 246.373 165.628C247.005 165.628 247.509 165.772 247.885 166.06C248.261 166.34 248.533 166.712 248.701 167.176C248.877 167.632 248.965 168.128 248.965 168.664C248.965 168.768 248.925 168.88 248.845 169C248.773 169.12 248.685 169.224 248.581 169.312C248.477 169.392 248.381 169.432 248.293 169.432H245.281C245.297 169.912 245.433 170.244 245.689 170.428C245.953 170.604 246.281 170.692 246.673 170.692C246.945 170.692 247.185 170.656 247.393 170.584C247.609 170.504 247.789 170.428 247.933 170.356C248.085 170.284 248.201 170.248 248.281 170.248C248.361 170.248 248.441 170.308 248.521 170.428C248.601 170.548 248.669 170.684 248.725 170.836C248.781 170.98 248.809 171.092 248.809 171.172C248.809 171.292 248.729 171.408 248.569 171.52C248.417 171.632 248.221 171.732 247.981 171.82C247.741 171.908 247.497 171.976 247.249 172.024C247.001 172.072 246.781 172.096 246.589 172.096ZM245.257 168.244H247.273C247.273 167.844 247.193 167.544 247.033 167.344C246.873 167.136 246.629 167.032 246.301 167.032C246.157 167.032 246.005 167.06 245.845 167.116C245.685 167.172 245.549 167.288 245.437 167.464C245.325 167.632 245.265 167.892 245.257 168.244Z" fill="#F8F4A6"/>
<path d="M289.428 124.472C289.172 124.472 288.984 124.436 288.864 124.364C288.752 124.3 288.696 124.204 288.696 124.076V117.812C288.696 117.46 288.684 117.18 288.66 116.972C288.644 116.756 288.624 116.588 288.6 116.468C288.584 116.348 288.576 116.244 288.576 116.156C288.576 116.068 288.632 115.996 288.744 115.94C288.864 115.884 289.004 115.844 289.164 115.82C289.332 115.788 289.488 115.768 289.632 115.76C289.784 115.744 289.892 115.736 289.956 115.736C290.052 115.736 290.124 115.76 290.172 115.808C290.22 115.848 290.26 115.924 290.292 116.036C290.332 116.148 290.372 116.316 290.412 116.54C290.508 116.364 290.636 116.208 290.796 116.072C290.964 115.936 291.156 115.828 291.372 115.748C291.588 115.668 291.82 115.628 292.068 115.628C292.516 115.628 292.912 115.752 293.256 116C293.6 116.248 293.872 116.616 294.072 117.104C294.272 117.584 294.372 118.172 294.372 118.868C294.372 119.516 294.272 120.084 294.072 120.572C293.872 121.052 293.576 121.428 293.184 121.7C292.8 121.964 292.332 122.096 291.78 122.096C291.58 122.096 291.4 122.076 291.24 122.036C291.08 122.004 290.936 121.96 290.808 121.904C290.688 121.84 290.584 121.78 290.496 121.724V124.076C290.496 124.204 290.436 124.3 290.316 124.364C290.204 124.436 290.02 124.472 289.764 124.472H289.428ZM291.396 120.692C291.788 120.692 292.076 120.54 292.26 120.236C292.452 119.924 292.548 119.468 292.548 118.868C292.548 118.284 292.464 117.84 292.296 117.536C292.136 117.232 291.884 117.08 291.54 117.08C291.3 117.08 291.092 117.152 290.916 117.296C290.748 117.44 290.608 117.604 290.496 117.788V120.464C290.6 120.52 290.724 120.572 290.868 120.62C291.02 120.668 291.196 120.692 291.396 120.692ZM296.427 122.024C296.171 122.024 295.983 121.992 295.863 121.928C295.751 121.856 295.695 121.756 295.695 121.628V117.812C295.695 117.46 295.683 117.18 295.659 116.972C295.643 116.756 295.623 116.588 295.599 116.468C295.583 116.348 295.575 116.244 295.575 116.156C295.575 116.068 295.631 115.996 295.743 115.94C295.863 115.884 296.003 115.844 296.163 115.82C296.331 115.788 296.487 115.768 296.631 115.76C296.783 115.744 296.891 115.736 296.955 115.736C297.059 115.736 297.135 115.76 297.183 115.808C297.231 115.856 297.271 115.948 297.303 116.084C297.343 116.212 297.387 116.408 297.435 116.672C297.491 116.464 297.583 116.284 297.711 116.132C297.847 115.972 297.995 115.848 298.155 115.76C298.323 115.672 298.483 115.628 298.635 115.628C298.867 115.628 299.019 115.672 299.091 115.76C299.163 115.848 299.199 115.98 299.199 116.156C299.199 116.22 299.191 116.324 299.175 116.468C299.159 116.612 299.135 116.764 299.103 116.924C299.071 117.076 299.027 117.208 298.971 117.32C298.915 117.424 298.843 117.476 298.755 117.476C298.683 117.476 298.607 117.456 298.527 117.416C298.455 117.368 298.351 117.344 298.215 117.344C298.063 117.344 297.923 117.38 297.795 117.452C297.675 117.524 297.575 117.616 297.495 117.728V121.628C297.495 121.756 297.435 121.856 297.315 121.928C297.203 121.992 297.019 122.024 296.763 122.024H296.427ZM302.459 122.096C301.507 122.096 300.783 121.816 300.287 121.256C299.791 120.696 299.543 119.896 299.543 118.856C299.543 117.808 299.791 117.008 300.287 116.456C300.783 115.904 301.507 115.628 302.459 115.628C303.411 115.628 304.131 115.904 304.619 116.456C305.115 117.008 305.363 117.808 305.363 118.856C305.363 119.896 305.115 120.696 304.619 121.256C304.131 121.816 303.411 122.096 302.459 122.096ZM302.459 120.692C302.835 120.692 303.107 120.536 303.275 120.224C303.451 119.912 303.539 119.456 303.539 118.856C303.539 118.256 303.451 117.804 303.275 117.5C303.107 117.188 302.835 117.032 302.459 117.032C302.083 117.032 301.807 117.188 301.631 117.5C301.455 117.804 301.367 118.256 301.367 118.856C301.367 119.456 301.455 119.912 301.631 120.224C301.807 120.536 302.083 120.692 302.459 120.692ZM308.559 122.096C308.175 122.096 307.851 122.028 307.587 121.892C307.331 121.756 307.139 121.556 307.011 121.292C306.883 121.02 306.819 120.688 306.819 120.296V117.128H306.435C306.195 117.128 306.075 116.928 306.075 116.528V116.324C306.075 115.924 306.195 115.724 306.435 115.724H306.819L307.011 114.584C307.035 114.456 307.095 114.36 307.191 114.296C307.295 114.232 307.439 114.2 307.623 114.2H308.019C308.227 114.2 308.379 114.232 308.475 114.296C308.571 114.36 308.619 114.456 308.619 114.584V115.724H309.351C309.591 115.724 309.711 115.924 309.711 116.324V116.528C309.711 116.928 309.591 117.128 309.351 117.128H308.619V120.176C308.619 120.352 308.647 120.48 308.703 120.56C308.767 120.632 308.875 120.668 309.027 120.668C309.163 120.668 309.267 120.652 309.339 120.62C309.419 120.58 309.487 120.56 309.543 120.56C309.591 120.56 309.635 120.6 309.675 120.68C309.715 120.76 309.747 120.86 309.771 120.98C309.803 121.092 309.827 121.204 309.843 121.316C309.859 121.42 309.867 121.5 309.867 121.556C309.867 121.652 309.799 121.744 309.663 121.832C309.527 121.912 309.359 121.976 309.159 122.024C308.959 122.072 308.759 122.096 308.559 122.096ZM313.275 122.096C312.323 122.096 311.599 121.816 311.103 121.256C310.607 120.696 310.359 119.896 310.359 118.856C310.359 117.808 310.607 117.008 311.103 116.456C311.599 115.904 312.323 115.628 313.275 115.628C314.227 115.628 314.947 115.904 315.435 116.456C315.931 117.008 316.179 117.808 316.179 118.856C316.179 119.896 315.931 120.696 315.435 121.256C314.947 121.816 314.227 122.096 313.275 122.096ZM313.275 120.692C313.651 120.692 313.923 120.536 314.091 120.224C314.267 119.912 314.355 119.456 314.355 118.856C314.355 118.256 314.267 117.804 314.091 117.5C313.923 117.188 313.651 117.032 313.275 117.032C312.899 117.032 312.623 117.188 312.447 117.5C312.271 117.804 312.183 118.256 312.183 118.856C312.183 119.456 312.271 119.912 312.447 120.224C312.623 120.536 312.899 120.692 313.275 120.692ZM319.376 122.096C318.992 122.096 318.668 122.028 318.404 121.892C318.148 121.756 317.956 121.556 317.828 121.292C317.7 121.02 317.636 120.688 317.636 120.296V117.128H317.252C317.012 117.128 316.892 116.928 316.892 116.528V116.324C316.892 115.924 317.012 115.724 317.252 115.724H317.636L317.828 114.584C317.852 114.456 317.912 114.36 318.008 114.296C318.112 114.232 318.256 114.2 318.44 114.2H318.836C319.044 114.2 319.196 114.232 319.292 114.296C319.388 114.36 319.436 114.456 319.436 114.584V115.724H320.168C320.408 115.724 320.528 115.924 320.528 116.324V116.528C320.528 116.928 320.408 117.128 320.168 117.128H319.436V120.176C319.436 120.352 319.464 120.48 319.52 120.56C319.584 120.632 319.692 120.668 319.844 120.668C319.98 120.668 320.084 120.652 320.156 120.62C320.236 120.58 320.304 120.56 320.36 120.56C320.408 120.56 320.452 120.6 320.492 120.68C320.532 120.76 320.564 120.86 320.588 120.98C320.62 121.092 320.644 121.204 320.66 121.316C320.676 121.42 320.684 121.5 320.684 121.556C320.684 121.652 320.616 121.744 320.48 121.832C320.344 121.912 320.176 121.976 319.976 122.024C319.776 122.072 319.576 122.096 319.376 122.096ZM322.853 124.472C322.605 124.472 322.421 124.448 322.301 124.4C322.189 124.36 322.133 124.3 322.133 124.22C322.133 124.188 322.137 124.152 322.145 124.112C322.153 124.08 322.165 124.044 322.181 124.004L323.153 121.352L323.177 122.672L320.933 116.18C320.925 116.14 320.913 116.104 320.897 116.072C320.889 116.032 320.885 115.996 320.885 115.964C320.885 115.876 320.945 115.812 321.065 115.772C321.185 115.724 321.369 115.7 321.617 115.7H322.013C322.189 115.7 322.337 115.72 322.457 115.76C322.577 115.792 322.653 115.856 322.685 115.952L323.741 119.744H323.789L324.821 115.952C324.853 115.856 324.929 115.792 325.049 115.76C325.169 115.72 325.317 115.7 325.493 115.7H325.793C326.049 115.7 326.233 115.724 326.345 115.772C326.457 115.812 326.513 115.876 326.513 115.964C326.513 115.996 326.509 116.032 326.501 116.072C326.501 116.104 326.493 116.14 326.477 116.18L323.729 124.22C323.697 124.316 323.621 124.38 323.501 124.412C323.381 124.452 323.233 124.472 323.057 124.472H322.853ZM327.994 124.472C327.738 124.472 327.55 124.436 327.43 124.364C327.318 124.3 327.262 124.204 327.262 124.076V117.812C327.262 117.46 327.25 117.18 327.226 116.972C327.21 116.756 327.19 116.588 327.166 116.468C327.15 116.348 327.142 116.244 327.142 116.156C327.142 116.068 327.198 115.996 327.31 115.94C327.43 115.884 327.57 115.844 327.73 115.82C327.898 115.788 328.054 115.768 328.198 115.76C328.35 115.744 328.458 115.736 328.522 115.736C328.618 115.736 328.69 115.76 328.738 115.808C328.786 115.848 328.826 115.924 328.858 116.036C328.898 116.148 328.938 116.316 328.978 116.54C329.074 116.364 329.202 116.208 329.362 116.072C329.53 115.936 329.722 115.828 329.938 115.748C330.154 115.668 330.386 115.628 330.634 115.628C331.082 115.628 331.478 115.752 331.822 116C332.166 116.248 332.438 116.616 332.638 117.104C332.838 117.584 332.938 118.172 332.938 118.868C332.938 119.516 332.838 120.084 332.638 120.572C332.438 121.052 332.142 121.428 331.75 121.7C331.366 121.964 330.898 122.096 330.346 122.096C330.146 122.096 329.966 122.076 329.806 122.036C329.646 122.004 329.502 121.96 329.374 121.904C329.254 121.84 329.15 121.78 329.062 121.724V124.076C329.062 124.204 329.002 124.3 328.882 124.364C328.77 124.436 328.586 124.472 328.33 124.472H327.994ZM329.962 120.692C330.354 120.692 330.642 120.54 330.826 120.236C331.018 119.924 331.114 119.468 331.114 118.868C331.114 118.284 331.03 117.84 330.862 117.536C330.702 117.232 330.45 117.08 330.106 117.08C329.866 117.08 329.658 117.152 329.482 117.296C329.314 117.44 329.174 117.604 329.062 117.788V120.464C329.166 120.52 329.29 120.572 329.434 120.62C329.586 120.668 329.762 120.692 329.962 120.692ZM337.081 122.096C335.993 122.096 335.197 121.808 334.693 121.232C334.197 120.648 333.949 119.872 333.949 118.904C333.949 118.112 334.073 117.476 334.321 116.996C334.569 116.516 334.913 116.168 335.353 115.952C335.793 115.736 336.297 115.628 336.865 115.628C337.497 115.628 338.001 115.772 338.377 116.06C338.753 116.34 339.025 116.712 339.193 117.176C339.369 117.632 339.457 118.128 339.457 118.664C339.457 118.768 339.417 118.88 339.337 119C339.265 119.12 339.177 119.224 339.073 119.312C338.969 119.392 338.873 119.432 338.785 119.432H335.773C335.789 119.912 335.925 120.244 336.181 120.428C336.445 120.604 336.773 120.692 337.165 120.692C337.437 120.692 337.677 120.656 337.885 120.584C338.101 120.504 338.281 120.428 338.425 120.356C338.577 120.284 338.693 120.248 338.773 120.248C338.853 120.248 338.933 120.308 339.013 120.428C339.093 120.548 339.161 120.684 339.217 120.836C339.273 120.98 339.301 121.092 339.301 121.172C339.301 121.292 339.221 121.408 339.061 121.52C338.909 121.632 338.713 121.732 338.473 121.82C338.233 121.908 337.989 121.976 337.741 122.024C337.493 122.072 337.273 122.096 337.081 122.096ZM335.749 118.244H337.765C337.765 117.844 337.685 117.544 337.525 117.344C337.365 117.136 337.121 117.032 336.793 117.032C336.649 117.032 336.497 117.06 336.337 117.116C336.177 117.172 336.041 117.288 335.929 117.464C335.817 117.632 335.757 117.892 335.749 118.244Z" fill="#F8F4A6"/>
<path d="M388.688 72.096C388.304 72.096 387.98 72.028 387.716 71.892C387.46 71.756 387.268 71.556 387.14 71.292C387.012 71.02 386.948 70.688 386.948 70.296V67.128H386.564C386.324 67.128 386.204 66.928 386.204 66.528V66.324C386.204 65.924 386.324 65.724 386.564 65.724H386.948L387.14 64.584C387.164 64.456 387.224 64.36 387.32 64.296C387.424 64.232 387.568 64.2 387.752 64.2H388.148C388.356 64.2 388.508 64.232 388.604 64.296C388.7 64.36 388.748 64.456 388.748 64.584V65.724H389.48C389.72 65.724 389.84 65.924 389.84 66.324V66.528C389.84 66.928 389.72 67.128 389.48 67.128H388.748V70.176C388.748 70.352 388.776 70.48 388.832 70.56C388.896 70.632 389.004 70.668 389.156 70.668C389.292 70.668 389.396 70.652 389.468 70.62C389.548 70.58 389.616 70.56 389.672 70.56C389.72 70.56 389.764 70.6 389.804 70.68C389.844 70.76 389.876 70.86 389.9 70.98C389.932 71.092 389.956 71.204 389.972 71.316C389.988 71.42 389.996 71.5 389.996 71.556C389.996 71.652 389.928 71.744 389.792 71.832C389.656 71.912 389.488 71.976 389.288 72.024C389.088 72.072 388.888 72.096 388.688 72.096ZM393.62 72.096C392.532 72.096 391.736 71.808 391.232 71.232C390.736 70.648 390.488 69.872 390.488 68.904C390.488 68.112 390.612 67.476 390.86 66.996C391.108 66.516 391.452 66.168 391.892 65.952C392.332 65.736 392.836 65.628 393.404 65.628C394.036 65.628 394.54 65.772 394.916 66.06C395.292 66.34 395.564 66.712 395.732 67.176C395.908 67.632 395.996 68.128 395.996 68.664C395.996 68.768 395.956 68.88 395.876 69C395.804 69.12 395.716 69.224 395.612 69.312C395.508 69.392 395.412 69.432 395.324 69.432H392.312C392.328 69.912 392.464 70.244 392.72 70.428C392.984 70.604 393.312 70.692 393.704 70.692C393.976 70.692 394.216 70.656 394.424 70.584C394.64 70.504 394.82 70.428 394.964 70.356C395.116 70.284 395.232 70.248 395.312 70.248C395.392 70.248 395.472 70.308 395.552 70.428C395.632 70.548 395.7 70.684 395.756 70.836C395.812 70.98 395.84 71.092 395.84 71.172C395.84 71.292 395.76 71.408 395.6 71.52C395.448 71.632 395.252 71.732 395.012 71.82C394.772 71.908 394.528 71.976 394.28 72.024C394.032 72.072 393.812 72.096 393.62 72.096ZM392.288 68.244H394.304C394.304 67.844 394.224 67.544 394.064 67.344C393.904 67.136 393.66 67.032 393.332 67.032C393.188 67.032 393.036 67.06 392.876 67.116C392.716 67.172 392.58 67.288 392.468 67.464C392.356 67.632 392.296 67.892 392.288 68.244ZM398.781 72.096C398.557 72.096 398.329 72.076 398.097 72.036C397.865 72.004 397.649 71.952 397.449 71.88C397.249 71.808 397.089 71.724 396.969 71.628C396.849 71.524 396.789 71.408 396.789 71.28C396.789 71.176 396.825 71.052 396.897 70.908C396.969 70.764 397.053 70.636 397.149 70.524C397.253 70.412 397.345 70.356 397.425 70.356C397.489 70.356 397.573 70.384 397.677 70.44C397.789 70.496 397.925 70.552 398.085 70.608C398.245 70.664 398.429 70.692 398.637 70.692C398.877 70.692 399.057 70.648 399.177 70.56C399.305 70.472 399.369 70.348 399.369 70.188C399.369 70.068 399.325 69.968 399.237 69.888C399.157 69.808 399.045 69.736 398.901 69.672C398.757 69.6 398.589 69.524 398.397 69.444C398.253 69.38 398.093 69.304 397.917 69.216C397.749 69.128 397.589 69.016 397.437 68.88C397.293 68.744 397.173 68.572 397.077 68.364C396.981 68.156 396.933 67.9 396.933 67.596C396.933 67.18 397.021 66.828 397.197 66.54C397.381 66.244 397.637 66.02 397.965 65.868C398.293 65.708 398.677 65.628 399.117 65.628C399.293 65.628 399.481 65.64 399.681 65.664C399.889 65.688 400.085 65.728 400.269 65.784C400.461 65.84 400.617 65.912 400.737 66C400.857 66.088 400.917 66.196 400.917 66.324C400.917 66.412 400.889 66.532 400.833 66.684C400.777 66.836 400.709 66.972 400.629 67.092C400.557 67.212 400.481 67.272 400.401 67.272C400.337 67.272 400.217 67.232 400.041 67.152C399.865 67.064 399.629 67.02 399.333 67.02C399.133 67.02 398.977 67.056 398.865 67.128C398.753 67.192 398.697 67.304 398.697 67.464C398.697 67.592 398.737 67.7 398.817 67.788C398.905 67.868 399.025 67.94 399.177 68.004C399.329 68.068 399.501 68.136 399.693 68.208C399.837 68.264 399.993 68.336 400.161 68.424C400.329 68.504 400.485 68.612 400.629 68.748C400.781 68.884 400.901 69.06 400.989 69.276C401.085 69.484 401.133 69.74 401.133 70.044C401.133 70.452 401.041 70.812 400.857 71.124C400.673 71.428 400.405 71.668 400.053 71.844C399.709 72.012 399.285 72.096 398.781 72.096ZM404.098 72.096C403.714 72.096 403.39 72.028 403.126 71.892C402.87 71.756 402.678 71.556 402.55 71.292C402.422 71.02 402.358 70.688 402.358 70.296V67.128H401.974C401.734 67.128 401.614 66.928 401.614 66.528V66.324C401.614 65.924 401.734 65.724 401.974 65.724H402.358L402.55 64.584C402.574 64.456 402.634 64.36 402.73 64.296C402.834 64.232 402.978 64.2 403.162 64.2H403.558C403.766 64.2 403.918 64.232 404.014 64.296C404.11 64.36 404.158 64.456 404.158 64.584V65.724H404.89C405.13 65.724 405.25 65.924 405.25 66.324V66.528C405.25 66.928 405.13 67.128 404.89 67.128H404.158V70.176C404.158 70.352 404.186 70.48 404.242 70.56C404.306 70.632 404.414 70.668 404.566 70.668C404.702 70.668 404.806 70.652 404.878 70.62C404.958 70.58 405.026 70.56 405.082 70.56C405.13 70.56 405.174 70.6 405.214 70.68C405.254 70.76 405.286 70.86 405.31 70.98C405.342 71.092 405.366 71.204 405.382 71.316C405.398 71.42 405.406 71.5 405.406 71.556C405.406 71.652 405.338 71.744 405.202 71.832C405.066 71.912 404.898 71.976 404.698 72.024C404.498 72.072 404.298 72.096 404.098 72.096Z" fill="#F8F4A6"/>
</g>
<defs>
<filter id="filter0_d_217_43" x="15.0748" y="25" width="434.453" height="194.603" filterUnits="userSpaceOnUse" color-interpolation-filters="sRGB">
<feFlood flood-opacity="0" result="BackgroundImageFix"/>
<feColorMatrix in="SourceAlpha" type="matrix" values="0 0 0 0 0 0 0 0 0 0 0 0 0 0 0 0 0 0 127 0" result="hardAlpha"/>
<feOffset dy="4"/>
<feGaussianBlur stdDeviation="2"/>
<feComposite in2="hardAlpha" operator="out"/>
<feColorMatrix type="matrix" values="0 0 0 0 0 0 0 0 0 0 0 0 0 0 0 0 0 0 0.25 0"/>
<feBlend mode="normal" in2="BackgroundImageFix" result="effect1_dropShadow_217_43"/>
<feBlend mode="normal" in="SourceGraphic" in2="effect1_dropShadow_217_43" result="shape"/>
</filter>
</defs>
</svg>
