<svg width="199" height="210" viewBox="0 0 199 210" fill="none" xmlns="http://www.w3.org/2000/svg">
<g filter="url(#filter0_d_218_113)">
<rect x="6.5" y="47.5" width="116" height="114" rx="3.5" fill="#BAD7F2" stroke="#1B998B" stroke-width="3"/>
<rect x="5.5" y="44.5" width="113" height="113" rx="3.5" fill="#BAD7F2" stroke="#1B998B" stroke-width="3"/>
</g>
<g filter="url(#filter1_d_218_113)">
<path d="M163.945 188.882V100.001C163.945 97.24 166.183 95.0015 168.945 95.0015H178.945C181.706 95.0015 183.945 97.24 183.945 100.001V188.882C183.945 189.619 183.786 190.344 183.434 190.992C182.11 193.425 178.362 199.501 173.945 199.501C169.528 199.501 165.78 193.425 164.456 190.992C164.103 190.344 163.945 189.619 163.945 188.882Z" fill="#F8F4A6" stroke="#1B998B" stroke-width="3"/>
<path d="M163.944 97.5H183.944H186.453C187.276 97.5 187.944 96.8321 187.944 96.0083L187.944 96.0012C187.946 95.8534 188.596 24.4947 187.944 18C187.292 11.4985 182.781 2 173.944 2C165.108 2 160.444 9.99854 159.444 18C158.597 24.7852 159.187 77.2313 159.385 93.0183C159.417 95.5135 161.449 97.5 163.944 97.5Z" fill="#1B998B" stroke="#1B998B" stroke-width="3"/>
<path d="M189.445 26.5015V26.5015C191.378 26.5015 192.945 28.0685 192.945 30.0015V80.5015" stroke="#1B998B" stroke-width="3"/>
<circle cx="192.945" cy="80.5015" r="1.5" fill="#1B998B"/>
</g>
<defs>
<filter id="filter0_d_218_113" x="0" y="43" width="128" height="128" filterUnits="userSpaceOnUse" color-interpolation-filters="sRGB">
<feFlood flood-opacity="0" result="BackgroundImageFix"/>
<feColorMatrix in="SourceAlpha" type="matrix" values="0 0 0 0 0 0 0 0 0 0 0 0 0 0 0 0 0 0 127 0" result="hardAlpha"/>
<feOffset dy="4"/>
<feGaussianBlur stdDeviation="2"/>
<feComposite in2="hardAlpha" operator="out"/>
<feColorMatrix type="matrix" values="0 0 0 0 0 0 0 0 0 0 0 0 0 0 0 0 0 0 0.25 0"/>
<feBlend mode="normal" in2="BackgroundImageFix" result="effect1_dropShadow_218_113"/>
<feBlend mode="normal" in="SourceGraphic" in2="effect1_dropShadow_218_113" result="shape"/>
</filter>
<filter id="filter1_d_218_113" x="153.5" y="0.5" width="44.9447" height="208.501" filterUnits="userSpaceOnUse" color-interpolation-filters="sRGB">
<feFlood flood-opacity="0" result="BackgroundImageFix"/>
<feColorMatrix in="SourceAlpha" type="matrix" values="0 0 0 0 0 0 0 0 0 0 0 0 0 0 0 0 0 0 127 0" result="hardAlpha"/>
<feOffset dy="4"/>
<feGaussianBlur stdDeviation="2"/>
<feComposite in2="hardAlpha" operator="out"/>
<feColorMatrix type="matrix" values="0 0 0 0 0 0 0 0 0 0 0 0 0 0 0 0 0 0 0.25 0"/>
<feBlend mode="normal" in2="BackgroundImageFix" result="effect1_dropShadow_218_113"/>
<feBlend mode="normal" in="SourceGraphic" in2="effect1_dropShadow_218_113" result="shape"/>
</filter>
</defs>
</svg>
