<svg width="366" height="39" viewBox="0 0 366 39" fill="none" xmlns="http://www.w3.org/2000/svg">
<path d="M32.312 27.296C31.992 29.536 31.112 31.52 29.672 33.248C28.232 34.944 26.392 36.272 24.152 37.232C21.912 38.192 19.416 38.672 16.664 38.672C13.528 38.672 10.76 38.08 8.36 36.896C5.992 35.68 4.136 34 2.792 31.856C1.448 29.712 0.776 27.232 0.776 24.416C0.776 21.6 1.448 19.12 2.792 16.976C4.136 14.832 5.992 13.168 8.36 11.984C10.76 10.768 13.528 10.16 16.664 10.16C19.416 10.16 21.912 10.64 24.152 11.6C26.392 12.56 28.232 13.904 29.672 15.632C31.112 17.328 31.992 19.312 32.312 21.584H26.024C25.576 19.536 24.504 17.936 22.808 16.784C21.112 15.632 19.064 15.056 16.664 15.056C14.744 15.056 13.064 15.44 11.624 16.208C10.184 16.944 9.064 18.016 8.264 19.424C7.496 20.8 7.112 22.464 7.112 24.416C7.112 26.336 7.496 28 8.264 29.408C9.064 30.816 10.184 31.904 11.624 32.672C13.064 33.408 14.744 33.776 16.664 33.776C19.096 33.776 21.16 33.184 22.856 32C24.552 30.816 25.608 29.248 26.024 27.296H32.312ZM48.4224 38.672C45.9264 38.672 43.7984 38.16 42.0384 37.136C40.3104 36.112 38.9824 34.64 38.0544 32.72C37.1264 30.8 36.6624 28.512 36.6624 25.856V10.832H42.9024V24.896C42.9024 27.712 43.5424 29.856 44.8224 31.328C46.1344 32.768 48.0064 33.488 50.4384 33.488C52.1984 33.488 53.7024 33.104 54.9504 32.336C56.2304 31.568 57.2224 30.48 57.9264 29.072C58.6304 27.632 58.9824 25.968 58.9824 24.08L61.1424 25.28C60.8864 28.064 60.1824 30.464 59.0304 32.48C57.8784 34.464 56.3904 36 54.5664 37.088C52.7424 38.144 50.6944 38.672 48.4224 38.672ZM60.5664 38L58.9824 28.208V10.832H65.2224V29.168L66.8064 38H60.5664ZM70.9066 10.832H77.1466L78.7786 20.72V38H72.5386V19.52L70.9066 10.832ZM92.5546 10.64V16.112C91.8506 15.92 91.0826 15.776 90.2506 15.68C89.4186 15.584 88.6346 15.536 87.8986 15.536C86.1386 15.536 84.5706 15.92 83.1946 16.688C81.8186 17.456 80.7306 18.608 79.9306 20.144C79.1626 21.648 78.7786 23.504 78.7786 25.712L77.3386 23.936C77.4666 22.016 77.7866 20.224 78.2986 18.56C78.8426 16.864 79.5786 15.392 80.5066 14.144C81.4666 12.896 82.6346 11.92 84.0106 11.216C85.3866 10.512 86.9866 10.16 88.8106 10.16C89.4506 10.16 90.1066 10.208 90.7786 10.304C91.4506 10.368 92.0426 10.48 92.5546 10.64ZM96.4839 10.64L99.6039 11.216L102.724 10.64V38H96.4839V10.64ZM99.6039 7.232C98.4199 7.232 97.4439 6.912 96.6759 6.272C95.9079 5.6 95.5239 4.736 95.5239 3.68C95.5239 2.624 95.9079 1.776 96.6759 1.136C97.4439 0.463999 98.4199 0.127998 99.6039 0.127998C100.82 0.127998 101.796 0.463999 102.532 1.136C103.3 1.776 103.684 2.624 103.684 3.68C103.684 4.736 103.3 5.6 102.532 6.272C101.796 6.912 100.82 7.232 99.6039 7.232ZM124.352 38.672C121.056 38.672 118.16 38.08 115.664 36.896C113.2 35.68 111.264 34 109.856 31.856C108.48 29.712 107.792 27.232 107.792 24.416C107.792 21.568 108.48 19.088 109.856 16.976C111.264 14.832 113.2 13.168 115.664 11.984C118.16 10.768 121.056 10.16 124.352 10.16C127.648 10.16 130.528 10.768 132.992 11.984C135.488 13.168 137.424 14.832 138.8 16.976C140.208 19.088 140.912 21.568 140.912 24.416C140.912 27.232 140.208 29.712 138.8 31.856C137.424 34 135.488 35.68 132.992 36.896C130.528 38.08 127.648 38.672 124.352 38.672ZM124.352 33.776C126.464 33.776 128.272 33.392 129.776 32.624C131.312 31.856 132.496 30.784 133.328 29.408C134.16 28 134.576 26.336 134.576 24.416C134.576 22.496 134.16 20.848 133.328 19.472C132.496 18.064 131.312 16.976 129.776 16.208C128.272 15.44 126.464 15.056 124.352 15.056C122.272 15.056 120.464 15.44 118.928 16.208C117.392 16.976 116.208 18.064 115.376 19.472C114.544 20.848 114.128 22.496 114.128 24.416C114.128 26.336 114.544 28 115.376 29.408C116.208 30.784 117.392 31.856 118.928 32.624C120.464 33.392 122.272 33.776 124.352 33.776ZM157.36 38.672C154.864 38.672 152.736 38.16 150.976 37.136C149.248 36.112 147.92 34.64 146.992 32.72C146.064 30.8 145.6 28.512 145.6 25.856V10.832H151.84V24.896C151.84 27.712 152.48 29.856 153.76 31.328C155.072 32.768 156.944 33.488 159.376 33.488C161.136 33.488 162.64 33.104 163.888 32.336C165.168 31.568 166.16 30.48 166.864 29.072C167.568 27.632 167.92 25.968 167.92 24.08L170.08 25.28C169.824 28.064 169.12 30.464 167.968 32.48C166.816 34.464 165.328 36 163.504 37.088C161.68 38.144 159.632 38.672 157.36 38.672ZM169.504 38L167.92 28.208V10.832H174.16V29.168L175.744 38H169.504ZM209.268 29.744C209.268 31.568 208.756 33.152 207.732 34.496C206.708 35.84 205.156 36.88 203.076 37.616C200.996 38.32 198.388 38.672 195.252 38.672C192.02 38.672 189.22 38.272 186.852 37.472C184.484 36.64 182.644 35.488 181.332 34.016C180.052 32.512 179.364 30.784 179.268 28.832H185.604C185.796 29.856 186.308 30.768 187.14 31.568C188.004 32.336 189.124 32.928 190.5 33.344C191.908 33.76 193.508 33.968 195.3 33.968C197.892 33.968 199.844 33.664 201.156 33.056C202.468 32.416 203.124 31.456 203.124 30.176C203.124 29.312 202.676 28.656 201.78 28.208C200.916 27.76 199.268 27.424 196.836 27.2L191.508 26.72C188.628 26.464 186.356 25.952 184.692 25.184C183.028 24.384 181.844 23.424 181.14 22.304C180.436 21.152 180.084 19.936 180.084 18.656C180.084 16.8 180.66 15.248 181.812 14C182.964 12.752 184.564 11.808 186.612 11.168C188.66 10.496 191.044 10.16 193.764 10.16C196.58 10.16 199.092 10.56 201.3 11.36C203.508 12.128 205.268 13.216 206.58 14.624C207.892 16 208.628 17.6 208.788 19.424H202.452C202.324 18.688 201.94 17.984 201.3 17.312C200.692 16.608 199.748 16.032 198.468 15.584C197.22 15.104 195.54 14.864 193.428 14.864C191.188 14.864 189.428 15.152 188.148 15.728C186.9 16.304 186.276 17.152 186.276 18.272C186.276 18.976 186.66 19.584 187.428 20.096C188.196 20.576 189.62 20.912 191.7 21.104L198.564 21.728C201.316 21.984 203.46 22.48 204.996 23.216C206.564 23.92 207.668 24.832 208.308 25.952C208.948 27.072 209.268 28.336 209.268 29.744ZM227.031 1.04H233.271V20.192L232.311 21.968V27.008L233.271 29.024V38H227.031V1.04ZM230.775 24.416C231.383 21.536 232.391 19.04 233.799 16.928C235.207 14.784 236.935 13.12 238.983 11.936C241.063 10.752 243.367 10.16 245.895 10.16C248.551 10.16 250.903 10.768 252.951 11.984C254.999 13.168 256.599 14.832 257.751 16.976C258.903 19.088 259.479 21.568 259.479 24.416C259.479 27.232 258.903 29.712 257.751 31.856C256.599 34 254.999 35.68 252.951 36.896C250.903 38.08 248.551 38.672 245.895 38.672C243.367 38.672 241.063 38.08 238.983 36.896C236.935 35.712 235.207 34.048 233.799 31.904C232.391 29.76 231.383 27.264 230.775 24.416ZM253.143 24.416C253.143 22.592 252.759 20.992 251.991 19.616C251.255 18.208 250.231 17.12 248.919 16.352C247.607 15.552 246.103 15.152 244.407 15.152C242.711 15.152 241.111 15.552 239.607 16.352C238.135 17.12 236.839 18.208 235.719 19.616C234.599 20.992 233.687 22.592 232.983 24.416C233.687 26.24 234.599 27.856 235.719 29.264C236.839 30.64 238.135 31.728 239.607 32.528C241.111 33.296 242.711 33.68 244.407 33.68C246.103 33.68 247.607 33.296 248.919 32.528C250.231 31.728 251.255 30.64 251.991 29.264C252.759 27.856 253.143 26.24 253.143 24.416ZM279.503 38.672C276.335 38.672 273.519 38.08 271.055 36.896C268.591 35.68 266.655 34 265.247 31.856C263.839 29.712 263.135 27.216 263.135 24.368C263.135 21.552 263.791 19.088 265.103 16.976C266.447 14.832 268.287 13.168 270.623 11.984C272.991 10.768 275.695 10.16 278.735 10.16C281.775 10.16 284.399 10.848 286.607 12.224C288.847 13.568 290.575 15.472 291.791 17.936C293.007 20.4 293.615 23.296 293.615 26.624H268.031V21.872H290.495L287.375 23.648C287.279 21.856 286.847 20.32 286.079 19.04C285.343 17.76 284.335 16.784 283.055 16.112C281.807 15.408 280.319 15.056 278.591 15.056C276.767 15.056 275.167 15.424 273.791 16.16C272.447 16.896 271.391 17.936 270.623 19.28C269.855 20.592 269.471 22.16 269.471 23.984C269.471 26 269.919 27.744 270.815 29.216C271.743 30.688 273.039 31.824 274.703 32.624C276.399 33.392 278.399 33.776 280.703 33.776C282.783 33.776 284.911 33.456 287.087 32.816C289.263 32.144 291.183 31.216 292.847 30.032V34.544C291.183 35.824 289.151 36.832 286.751 37.568C284.383 38.304 281.967 38.672 279.503 38.672ZM324.094 38L323.038 27.92L324.286 24.416L323.038 20.96L324.094 10.832H330.526L329.086 24.416L330.526 38H324.094ZM326.014 24.416C325.406 27.264 324.398 29.76 322.99 31.904C321.582 34.048 319.838 35.712 317.758 36.896C315.71 38.08 313.422 38.672 310.894 38.672C308.238 38.672 305.886 38.08 303.838 36.896C301.79 35.68 300.19 34 299.038 31.856C297.886 29.712 297.31 27.232 297.31 24.416C297.31 21.568 297.886 19.088 299.038 16.976C300.19 14.832 301.79 13.168 303.838 11.984C305.886 10.768 308.238 10.16 310.894 10.16C313.422 10.16 315.71 10.752 317.758 11.936C319.838 13.12 321.582 14.784 322.99 16.928C324.43 19.04 325.438 21.536 326.014 24.416ZM303.646 24.416C303.646 26.24 304.014 27.856 304.75 29.264C305.518 30.64 306.558 31.728 307.87 32.528C309.182 33.296 310.686 33.68 312.382 33.68C314.11 33.68 315.71 33.296 317.182 32.528C318.654 31.728 319.95 30.64 321.07 29.264C322.222 27.856 323.134 26.24 323.806 24.416C323.134 22.592 322.222 20.992 321.07 19.616C319.95 18.208 318.654 17.12 317.182 16.352C315.71 15.552 314.11 15.152 312.382 15.152C310.686 15.152 309.182 15.552 307.87 16.352C306.558 17.12 305.518 18.208 304.75 19.616C304.014 20.992 303.646 22.592 303.646 24.416ZM335.235 10.832H341.475L343.107 20.624V38H336.867V19.712L335.235 10.832ZM353.907 10.16C356.467 10.16 358.643 10.672 360.435 11.696C362.227 12.72 363.587 14.192 364.515 16.112C365.475 18 365.955 20.288 365.955 22.976V38H359.715V23.984C359.715 21.136 359.043 18.992 357.699 17.552C356.387 16.08 354.451 15.344 351.891 15.344C350.131 15.344 348.579 15.744 347.235 16.544C345.923 17.312 344.899 18.4 344.163 19.808C343.459 21.216 343.107 22.864 343.107 24.752L340.899 23.552C341.187 20.736 341.923 18.336 343.107 16.352C344.291 14.368 345.811 12.848 347.667 11.792C349.523 10.704 351.603 10.16 353.907 10.16Z" fill="black"/>
</svg>
