<svg width="252" height="137" viewBox="0 0 252 137" fill="none" stroke="#1b998b" xmlns="http://www.w3.org/2000/svg">
<path d="M75.5 5C94.3476 7.72639 96.4562 18 115.5 18C123 18 129.983 19.2206 137.5 18C154.787 15.1928 159.305 8.32487 176.5 5C202.395 -0.00705767 226.093 5.58962 240 28C251.84 47.0799 252.232 66.6687 240 85.5C229.617 101.485 217.158 110.322 199.5 117.5C147.404 138.676 106.391 139.174 54.5 117.5C37.2246 110.284 22.1893 101.206 12 85.5C-0.221184 66.6618 0.159703 47.0799 12 28C25.9071 5.58962 49.3968 1.22407 75.5 5Z" stroke="#1b998b" stroke-width="5"/>
<path d="M61.6522 67.7471C58.02 72.549 53.9412 76.2654 49.4157 78.8964C44.9355 81.4546 40.3983 82.8167 35.8041 82.9829C31.2099 83.1491 26.9252 81.9942 22.95 79.5184C18.4201 76.6972 15.2595 72.8618 13.4683 68.0124C11.7686 63.119 11.4651 57.6319 12.5578 51.5512C13.6505 45.4704 16.1894 39.2307 20.1745 32.8322C24.1596 26.4336 28.6399 21.403 33.6154 17.7405C38.5908 14.0779 43.6266 11.9667 48.7227 11.4067C53.9103 10.8028 58.7691 11.9115 63.299 14.7327C67.2742 17.2085 70.2004 20.5447 72.0775 24.7412C73.9546 28.9377 74.7105 33.6469 74.3451 38.8688C74.0251 44.018 72.4885 49.3178 69.7355 54.7681L60.6526 49.1112C62.9037 44.0547 63.6195 39.4547 62.7999 35.3113C61.9803 31.1679 59.8371 28.0167 56.3704 25.8575C53.597 24.1302 50.6268 23.4914 47.4599 23.941C44.3383 24.3179 41.2034 25.7461 38.0553 28.2257C34.9986 30.6613 32.0891 34.0969 29.3268 38.5323C26.6096 42.8949 24.8095 47.0214 23.9263 50.9116C23.0894 54.8306 23.1675 58.3104 24.1607 61.3509C25.1992 64.3187 27.1052 66.6663 29.8786 68.3936C33.3916 70.5815 37.2108 71.0932 41.3362 69.9287C45.4616 68.7642 49.2059 66.1513 52.5692 62.0902L61.6522 67.7471Z" fill="#1b998b"/>
<path d="M66.2316 114.904C62.1039 113.406 58.8277 111.46 56.4029 109.065C54.031 106.689 52.5332 103.968 51.9093 100.9C51.2855 97.8331 51.6036 94.563 52.8636 91.0902L59.9908 71.4453L70.31 75.1892L63.6382 93.5787C62.3023 97.2608 62.3436 100.448 63.7621 103.141C65.2486 105.811 68.0028 107.876 72.0247 109.335C74.9352 110.391 77.6046 110.791 80.0328 110.535C82.5139 110.299 84.6705 109.472 86.5027 108.053C88.35 106.593 89.7215 104.628 90.6171 102.159L93.6199 105.024C91.8759 108.511 89.5731 111.227 86.7117 113.172C83.8654 115.075 80.676 116.19 77.1435 116.519C73.6261 116.805 69.9888 116.267 66.2316 114.904ZM86.6332 121.311L88.6589 107.557L96.9018 84.8368L107.221 88.5806L98.5227 112.556L96.9524 125.055L86.6332 121.311Z" fill="#1b998b"/>
<path d="M78.8987 25.2404L96.955 26.5337L100.37 45.1235L98.0856 77.0195L80.0293 75.7262L82.4725 41.6152L78.8987 25.2404ZM141.566 29.3727L140.842 39.4731C138.83 38.9728 136.627 38.5478 134.232 38.1982C131.838 37.8485 129.575 37.5975 127.446 37.4449C122.353 37.0801 117.765 37.464 113.682 38.5964C109.598 39.7288 106.298 41.6297 103.78 44.2991C101.359 46.916 100.002 50.2623 99.7102 54.3379L95.7781 50.7613C96.4024 47.2438 97.5652 44.0024 99.2668 41.037C101.065 38.0192 103.389 35.4547 106.24 33.3435C109.183 31.2388 112.691 29.6794 116.766 28.6651C120.841 27.6508 125.517 27.3327 130.795 27.7107C132.647 27.8434 134.539 28.068 136.471 28.3844C138.407 28.6418 140.105 28.9713 141.566 29.3727Z" fill="#1b998b"/>
<path d="M113.941 73.8175L123.5 74.9582L133.059 73.8175V128H113.941V73.8175ZM123.5 67.0684C119.873 67.0684 116.882 66.4347 114.529 65.1673C112.176 63.8365 111 62.1255 111 60.0342C111 57.943 112.176 56.2636 114.529 54.9962C116.882 53.6654 119.873 53 123.5 53C127.225 53 130.216 53.6654 132.471 54.9962C134.824 56.2636 136 57.943 136 60.0342C136 62.1255 134.824 63.8365 132.471 65.1673C130.216 66.4347 127.225 67.0684 123.5 67.0684Z" fill="#1b998b"/>
<path d="M190.43 61.7628C182.799 63.5965 175.843 64.163 169.562 63.4623C163.342 62.6873 158.148 60.7997 153.979 57.7996C149.884 54.7817 147.239 50.7882 146.045 45.8189C144.837 40.7932 145.379 36.0341 147.669 31.5416C150.019 26.9749 153.796 22.9614 158.999 19.5013C164.262 15.9668 170.709 13.2828 178.34 11.4491C185.971 9.6154 192.896 9.08605 199.116 9.86105C205.397 10.5618 210.585 12.4211 214.68 15.439C218.835 18.3826 221.517 22.3673 222.724 27.393C223.919 32.3622 223.34 37.1302 220.99 41.697C218.713 46.2459 214.943 50.2876 209.68 53.822C204.478 57.2822 198.061 59.9291 190.43 61.7628ZM188.354 53.1231C193.244 51.9481 197.267 50.2646 200.423 48.0726C203.653 45.8628 205.94 43.3124 207.283 40.4214C208.612 37.4739 208.87 34.3061 208.055 30.9179C207.241 27.5298 205.579 24.8531 203.07 22.8878C200.546 20.8661 197.344 19.6048 193.462 19.1041C189.654 18.5856 185.305 18.9138 180.416 20.0888C175.6 21.246 171.577 22.9295 168.347 25.1393C165.116 27.3491 162.836 29.9277 161.507 32.8752C160.164 35.7662 159.9 38.9058 160.714 42.294C161.528 45.6821 163.197 48.387 165.72 50.4088C168.23 52.3741 171.426 53.6071 175.308 54.1078C179.19 54.6085 183.538 54.2803 188.354 53.1231Z" fill="#1b998b"/>
<path d="M167.759 121.411C163.517 122.362 159.704 122.301 156.321 121.226C152.992 120.139 150.172 118.136 147.861 115.216C145.549 112.296 143.885 108.572 142.869 104.044L137.123 78.4279L147.729 76.0486L153.108 100.028C154.185 104.829 156.093 108.24 158.832 110.262C161.612 112.217 165.07 112.731 169.203 111.803C172.195 111.132 174.604 109.904 176.431 108.119C178.313 106.321 179.583 104.088 180.241 101.419C180.887 98.6952 180.849 95.7239 180.127 92.5049L184.257 93.7272C184.887 98.5715 184.608 102.932 183.421 106.808C182.222 110.63 180.28 113.817 177.596 116.367C174.9 118.863 171.621 120.544 167.759 121.411ZM188.143 115.634L181.706 99.5431L175.059 69.9172L185.665 67.5379L192.679 98.8005L198.749 113.255L188.143 115.634Z" fill="#1b998b"/>
<path d="M242.032 54.2973C243.876 55.6408 244.855 57.6608 244.971 60.3574C245.086 63.0539 244.253 66.4066 242.472 70.4153C240.658 74.4005 237.847 79.0063 234.039 84.2329C230.115 89.6195 226.311 93.9915 222.627 97.3489C218.91 100.683 215.512 102.901 212.43 104.003C209.356 105.029 206.773 104.903 204.683 103.625L212.376 93.0651C213.645 93.4993 215.189 93.3177 217.008 92.5203C218.833 91.646 220.792 90.2154 222.883 88.2285C225.013 86.1883 227.166 83.6748 229.342 80.6882C232.489 76.3683 234.552 72.8911 235.53 70.2566C236.476 67.5986 236.302 65.7982 235.008 64.8554C234.135 64.219 232.928 64.4825 231.387 65.6458C229.885 66.7559 227.544 69.255 224.365 73.1433L217.41 81.6696C213.654 86.281 210.378 89.6905 207.581 91.8982C204.752 94.0822 202.344 95.3484 200.356 95.6968C198.337 96.0216 196.68 95.7127 195.386 94.7699C193.51 93.4029 192.64 91.2997 192.777 88.4606C192.914 85.6214 193.903 82.2594 195.742 78.3748C197.55 74.4665 200.105 70.2457 203.407 65.7125C206.826 61.0192 210.281 57.1272 213.771 54.0365C217.228 50.9222 220.465 48.7903 223.482 47.6407C226.466 46.4675 228.977 46.4194 231.015 47.4962L223.322 58.056C222.423 57.7273 221.245 57.8487 219.788 58.4204C218.338 58.9152 216.61 60.0643 214.602 61.8676C212.602 63.594 210.319 66.2172 207.755 69.7372C205.035 73.4705 203.189 76.6159 202.217 79.1734C201.284 81.6777 201.384 83.3422 202.516 84.1672C203.228 84.6857 204.309 84.4935 205.759 83.5907C207.177 82.6642 209.246 80.5384 211.965 77.2132L220.931 66.2329C224.531 61.8349 227.636 58.6269 230.245 56.6091C232.86 54.5143 235.123 53.346 237.032 53.1043C238.942 52.8626 240.608 53.2603 242.032 54.2973Z" fill="#1b998b"/>
</svg>
